<mxfile host="app.diagrams.net" agent="Mozilla/5.0 (X11; Linux x86_64) AppleWebKit/537.36 (KHTML, like Gecko) Chrome/134.0.0.0 Safari/537.36" version="26.0.16">
  <diagram name="Página-1" id="5FzAI45hvc5Jax0s3gYO">
    <mxGraphModel dx="2074" dy="683" grid="1" gridSize="10" guides="1" tooltips="1" connect="1" arrows="1" fold="1" page="1" pageScale="1" pageWidth="827" pageHeight="1169" math="0" shadow="0">
      <root>
        <mxCell id="0" />
        <mxCell id="1" parent="0" />
        <mxCell id="yFlLuneoWdqLcsGAmYbI-12" style="edgeStyle=orthogonalEdgeStyle;rounded=0;orthogonalLoop=1;jettySize=auto;html=1;entryX=1;entryY=0.5;entryDx=0;entryDy=0;" edge="1" parent="1" source="yFlLuneoWdqLcsGAmYbI-3" target="yFlLuneoWdqLcsGAmYbI-10">
          <mxGeometry relative="1" as="geometry" />
        </mxCell>
        <mxCell id="yFlLuneoWdqLcsGAmYbI-17" style="edgeStyle=orthogonalEdgeStyle;rounded=0;orthogonalLoop=1;jettySize=auto;html=1;" edge="1" parent="1" source="yFlLuneoWdqLcsGAmYbI-3" target="yFlLuneoWdqLcsGAmYbI-16">
          <mxGeometry relative="1" as="geometry" />
        </mxCell>
        <mxCell id="yFlLuneoWdqLcsGAmYbI-21" style="edgeStyle=orthogonalEdgeStyle;rounded=0;orthogonalLoop=1;jettySize=auto;html=1;" edge="1" parent="1" source="yFlLuneoWdqLcsGAmYbI-3" target="yFlLuneoWdqLcsGAmYbI-20">
          <mxGeometry relative="1" as="geometry" />
        </mxCell>
        <mxCell id="yFlLuneoWdqLcsGAmYbI-26" style="edgeStyle=orthogonalEdgeStyle;rounded=0;orthogonalLoop=1;jettySize=auto;html=1;entryX=0.5;entryY=0;entryDx=0;entryDy=0;" edge="1" parent="1" source="yFlLuneoWdqLcsGAmYbI-3" target="yFlLuneoWdqLcsGAmYbI-25">
          <mxGeometry relative="1" as="geometry">
            <Array as="points">
              <mxPoint x="-472" y="1038.5" />
            </Array>
          </mxGeometry>
        </mxCell>
        <mxCell id="yFlLuneoWdqLcsGAmYbI-33" style="edgeStyle=orthogonalEdgeStyle;rounded=0;orthogonalLoop=1;jettySize=auto;html=1;entryX=0;entryY=0.5;entryDx=0;entryDy=0;" edge="1" parent="1" source="yFlLuneoWdqLcsGAmYbI-3" target="yFlLuneoWdqLcsGAmYbI-32">
          <mxGeometry relative="1" as="geometry">
            <Array as="points">
              <mxPoint x="-280" y="822" />
            </Array>
          </mxGeometry>
        </mxCell>
        <mxCell id="yFlLuneoWdqLcsGAmYbI-3" value="Jugador" style="rounded=0;whiteSpace=wrap;html=1;" vertex="1" parent="1">
          <mxGeometry x="-402" y="1013.5" width="170" height="50" as="geometry" />
        </mxCell>
        <mxCell id="yFlLuneoWdqLcsGAmYbI-11" style="edgeStyle=orthogonalEdgeStyle;rounded=0;orthogonalLoop=1;jettySize=auto;html=1;entryX=0;entryY=0.5;entryDx=0;entryDy=0;" edge="1" parent="1" source="yFlLuneoWdqLcsGAmYbI-9" target="yFlLuneoWdqLcsGAmYbI-10">
          <mxGeometry relative="1" as="geometry" />
        </mxCell>
        <mxCell id="yFlLuneoWdqLcsGAmYbI-9" value="Clan" style="rounded=0;whiteSpace=wrap;html=1;" vertex="1" parent="1">
          <mxGeometry x="-722" y="1010" width="170" height="50" as="geometry" />
        </mxCell>
        <mxCell id="yFlLuneoWdqLcsGAmYbI-10" value="Jugador_clan" style="rounded=0;whiteSpace=wrap;html=1;" vertex="1" parent="1">
          <mxGeometry x="-570" y="890" width="170" height="50" as="geometry" />
        </mxCell>
        <mxCell id="yFlLuneoWdqLcsGAmYbI-13" value="(1,N)" style="text;html=1;align=center;verticalAlign=middle;whiteSpace=wrap;rounded=0;" vertex="1" parent="1">
          <mxGeometry x="-487" y="846.5" width="60" height="30" as="geometry" />
        </mxCell>
        <mxCell id="yFlLuneoWdqLcsGAmYbI-15" value="Un jugador solo puede estar en un clan&lt;div&gt;Un clan tiene varios jugadores&lt;/div&gt;" style="text;html=1;align=center;verticalAlign=middle;whiteSpace=wrap;rounded=0;" vertex="1" parent="1">
          <mxGeometry x="-620" y="950" width="270" height="30" as="geometry" />
        </mxCell>
        <mxCell id="yFlLuneoWdqLcsGAmYbI-16" value="Partida" style="rounded=0;whiteSpace=wrap;html=1;" vertex="1" parent="1">
          <mxGeometry x="-42" y="1013.5" width="170" height="50" as="geometry" />
        </mxCell>
        <mxCell id="yFlLuneoWdqLcsGAmYbI-18" value="(1,N)" style="text;html=1;align=center;verticalAlign=middle;whiteSpace=wrap;rounded=0;" vertex="1" parent="1">
          <mxGeometry x="-172" y="943.5" width="60" height="30" as="geometry" />
        </mxCell>
        <mxCell id="yFlLuneoWdqLcsGAmYbI-19" value="Un jugador juega muchas partidas&lt;div&gt;Una partida es jugada por un solo jugador&lt;/div&gt;" style="text;html=1;align=center;verticalAlign=middle;whiteSpace=wrap;rounded=0;" vertex="1" parent="1">
          <mxGeometry x="-272" y="973.5" width="270" height="30" as="geometry" />
        </mxCell>
        <mxCell id="yFlLuneoWdqLcsGAmYbI-20" value="Esta_Piezas" style="rounded=0;whiteSpace=wrap;html=1;" vertex="1" parent="1">
          <mxGeometry x="-232" y="1213.5" width="172" height="50" as="geometry" />
        </mxCell>
        <mxCell id="yFlLuneoWdqLcsGAmYbI-22" value="(1,1)" style="text;html=1;align=center;verticalAlign=middle;whiteSpace=wrap;rounded=0;" vertex="1" parent="1">
          <mxGeometry x="-152" y="1143.5" width="60" height="30" as="geometry" />
        </mxCell>
        <mxCell id="yFlLuneoWdqLcsGAmYbI-23" value="Un registro por jugador" style="text;html=1;align=center;verticalAlign=middle;whiteSpace=wrap;rounded=0;" vertex="1" parent="1">
          <mxGeometry x="-222" y="1173.5" width="150" height="30" as="geometry" />
        </mxCell>
        <mxCell id="yFlLuneoWdqLcsGAmYbI-28" style="edgeStyle=orthogonalEdgeStyle;rounded=0;orthogonalLoop=1;jettySize=auto;html=1;" edge="1" parent="1" source="yFlLuneoWdqLcsGAmYbI-25" target="yFlLuneoWdqLcsGAmYbI-27">
          <mxGeometry relative="1" as="geometry" />
        </mxCell>
        <mxCell id="yFlLuneoWdqLcsGAmYbI-25" value="Mundo" style="rounded=0;whiteSpace=wrap;html=1;" vertex="1" parent="1">
          <mxGeometry x="-557" y="1153.5" width="170" height="50" as="geometry" />
        </mxCell>
        <mxCell id="yFlLuneoWdqLcsGAmYbI-27" value="Nivel" style="rounded=0;whiteSpace=wrap;html=1;" vertex="1" parent="1">
          <mxGeometry x="-557" y="1303.5" width="170" height="50" as="geometry" />
        </mxCell>
        <mxCell id="yFlLuneoWdqLcsGAmYbI-29" value="(1,9)" style="text;html=1;align=center;verticalAlign=middle;whiteSpace=wrap;rounded=0;" vertex="1" parent="1">
          <mxGeometry x="-462" y="1073.5" width="60" height="30" as="geometry" />
        </mxCell>
        <mxCell id="yFlLuneoWdqLcsGAmYbI-30" value="(1,9)" style="text;html=1;align=center;verticalAlign=middle;whiteSpace=wrap;rounded=0;" vertex="1" parent="1">
          <mxGeometry x="-462" y="1243.5" width="60" height="30" as="geometry" />
        </mxCell>
        <mxCell id="yFlLuneoWdqLcsGAmYbI-32" value="Suscripción" style="rounded=0;whiteSpace=wrap;html=1;" vertex="1" parent="1">
          <mxGeometry x="-180" y="796.5" width="170" height="50" as="geometry" />
        </mxCell>
      </root>
    </mxGraphModel>
  </diagram>
</mxfile>
